
        <svg xmlns="http://www.w3.org/2000/svg" xmlns:xlink="http://www.w3.org/1999/xlink" version="1.1" width="3160.158190321162" 
        height="1112.50020090881" viewBox="0 -18.338112791773035 3160.158190321162 1112.50020090881">
			
			<g transform="scale(8.007909516058094) translate(10, 10)">
				<defs id="SvgjsDefs3160"></defs><g id="SvgjsG3161" featureKey="nYIUkx-0" transform="matrix(1.398456249591537,0,0,1.398456249591537,-19.441125239594534,-11.10109175688611)" fill="#c12f2f"><g xmlns="http://www.w3.org/2000/svg" fill="none" stroke="black" font-family="Times New Roman" font-size="16" transform="scale(1 -1)"><g transform="translate(0 -96)"><g><path d="M 21.633,34.925 C 24.973,46.855 40.837,53.71 46.922,66.223 C 49.866,72.279 48.49,83.461 43.464,87.939 C 43.197,88.178 42.09,90.326 43.217,89.521 C 54.416,81.327 63.521,70.509 59.309,60.068 C 53.464,45.577 38.409,38.34 38.519,23.585 C 38.566,17.447 43.088,12.523 48.838,7.375 L 49.073,6.299 C 34.143,10.56 17.742,21.028 21.633,34.925 Z M 59.314,18.723 C 67.987,26.524 73.282,31.263 71.043,40.298 C 73.766,36.119 76.295,30.323 74.135,25.806 C 72.203,21.769 70.28,18.956 63.244,15.02 C 59.515,12.935 56.712,10.677 54.37,6.898 C 54.248,10.853 55.011,14.852 59.314,18.723 Z M 49.686,32.153 C 53.003,38.255 57.845,42.622 62.538,48.882 C 65.869,53.325 68.92,60.704 65.731,66.728 L 65.937,67.016 C 70.824,61.556 71.028,52.654 69.495,46.059 C 67.086,35.69 58.5,31.5 53.511,23.918 C 51.557,20.948 50.446,17.311 51,13.5 C 45.461,18.021 46.717,26.69 49.686,32.153 Z" stroke-linejoin="miter" stroke-linecap="round" stroke="none" stroke-width="0.75" fill="#c12f2f" marker-start="none" marker-end="none" stroke-miterlimit="79.8403193612775"></path></g></g></g></g><g id="SvgjsG3162" featureKey="PXhRQw-0" transform="matrix(5.320217228214336,0,0,5.320217228214336,98.9359563006694,-4.26118460766979)" fill="#016565"><path d="M3.38 18.2 l-0.26 1.8 l-2.92 0 l2.62 -14.5 l3.1 0 l2.62 14.5 l-2.92 0 l-0.26 -1.8 l-1.98 0 z M3.7 15.9 l1.34 0 l-0.66 -5.14 z M11.459999999999999 20 c-0.84 0 -1.4267 -0.17334 -1.76 -0.52 s-0.5 -0.92 -0.5 -1.72 l0 -12.26 l2.96 0 l0 11.64 c0 0.10666 0.01666 0.18666 0.05 0.24 s0.11 0.08 0.23 0.08 l1.02 0 c0.12 0 0.19666 -0.02666 0.23 -0.08 s0.05 -0.13334 0.05 -0.24 l0 -11.64 l2.96 0 l0 12.26 c0 0.8 -0.16666 1.3733 -0.5 1.72 s-0.92 0.52 -1.76 0.52 l-2.98 0 z M20.8 8.04 l0 5 l1.42 0 c0.18666 0 0.28 -0.1 0.28 -0.3 l0 -4.4 c0 -0.2 -0.09334 -0.3 -0.28 -0.3 l-1.42 0 z M25.36 14.1 c0 0.32 -0.11 0.61334 -0.33 0.88 s-0.54334 0.4 -0.97 0.4 l1.52 4.62 l-3 0 l-1.4 -4.62 l-0.38 0 l0 4.62 l-2.9 0 l0 -14.5 l5.5 0 c0.68 0 1.1767 0.17 1.49 0.51 s0.47 0.79666 0.47 1.37 l0 6.72 z M29.78 8.04 c-0.17334 0 -0.26 0.09334 -0.26 0.28 l0 8.84 c0 0.10666 0.01666 0.18332 0.05 0.22998 s0.11 0.07 0.23 0.07 l1.1 0 c0.12 0 0.19666 -0.02334 0.23 -0.07 s0.05 -0.12332 0.05 -0.22998 l0 -8.84 c0 -0.18666 -0.08666 -0.28 -0.26 -0.28 l-1.14 0 z M34.12 17.94 c0 0.28 -0.03334 0.54334 -0.1 0.79 s-0.18 0.46332 -0.34 0.64998 s-0.37334 0.33666 -0.64 0.45 s-0.6 0.17 -1 0.17 l-3.36 0 c-0.4 0 -0.73334 -0.05666 -1 -0.17 s-0.48 -0.26334 -0.64 -0.45 s-0.27334 -0.40332 -0.34 -0.64998 s-0.1 -0.51 -0.1 -0.79 l0 -10.56 c0 -0.57334 0.15666 -1.03 0.47 -1.37 s0.81 -0.51 1.49 -0.51 l3.6 0 c0.68 0 1.1767 0.17 1.49 0.51 s0.47 0.79666 0.47 1.37 l0 10.56 z M38.22 8.04 l0 5 l1.42 0 c0.18666 0 0.28 -0.1 0.28 -0.3 l0 -4.4 c0 -0.2 -0.09334 -0.3 -0.28 -0.3 l-1.42 0 z M42.78 14.1 c0 0.32 -0.11 0.61334 -0.33 0.88 s-0.54334 0.4 -0.97 0.4 l1.52 4.62 l-3 0 l-1.4 -4.62 l-0.38 0 l0 4.62 l-2.9 0 l0 -14.5 l5.5 0 c0.68 0 1.1767 0.17 1.49 0.51 s0.47 0.79666 0.47 1.37 l0 6.72 z M46.660000000000004 18.2 l-0.26 1.8 l-2.92 0 l2.62 -14.5 l3.1 0 l2.62 14.5 l-2.92 0 l-0.26 -1.8 l-1.98 0 z M46.980000000000004 15.9 l1.34 0 l-0.66 -5.14 z"></path></g>
			</g>
		</svg>
	